<svg xmlns="http://www.w3.org/2000/svg" xmlns:xlink="http://www.w3.org/1999/xlink" viewBox="0 0 84.35 91.67"><defs><style>.cls-1{fill:none;}.cls-2{isolation:isolate;}.cls-23,.cls-3{fill:#ebede7;}.cls-4{clip-path:url(#clip-path);}.cls-5{clip-path:url(#clip-path-2);}.cls-6{fill:#ba623b;}.cls-7{fill:#9b3d2f;}.cls-8{fill:#202020;}.cls-9{fill:#d17f49;}.cls-10{fill:#6c3317;opacity:0.4;mix-blend-mode:multiply;}.cls-11{fill:#ebbb2b;}.cls-12{fill:#77312e;}.cls-13{fill:#b95d38;}.cls-14{fill:#b35133;}.cls-15{fill:#651a1a;}.cls-16{fill:#fff;}.cls-17{fill:#4171b2;}.cls-18{fill:#3356a1;}.cls-19{fill:#7ec0d8;}.cls-20{fill:#dcd0d1;}.cls-21{fill:#474747;}.cls-22{fill:#f2c743;}.cls-23{opacity:0.5;}</style><clipPath id="clip-path" transform="translate(-9.58)"><path class="cls-1" d="M92.17,51.2c-4.3,10-15.38,14.46-19.36,16.07a46.6,46.6,0,0,1-14.48,3.09A58.58,58.58,0,0,1,34.21,67.5a60.41,60.41,0,0,1-8.6-3.85C20.76,61,12.55,56.54,8.4,49.61c-5.84-9.74-3.48-24,3.17-33.28C23.24.06,46,2.2,51.87,2.74c5.49.52,18.66,1.94,29.21,12.46C88.69,22.78,97.81,38.1,92.17,51.2Z"/></clipPath><clipPath id="clip-path-2" transform="translate(-9.58)"><rect class="cls-1" y="4.44" width="102.85" height="68.57"/></clipPath></defs><title>Asset 3rejoice girl</title><g class="cls-2"><g id="Layer_2" data-name="Layer 2"><g id="Layer_1-2" data-name="Layer 1"><path class="cls-3" d="M83.26,68.59H24A10.67,10.67,0,0,1,13.32,57.92,38,38,0,0,1,13,37a28.49,28.49,0,0,1,3.12-7.43c3.24-5.32,10.63-13.13,18-12.91C46.73,17,48.37,40.47,64,42.77c6.47,1,9.41,1.59,16.95-.1A10.65,10.65,0,0,1,93.93,53.09v4.83A10.67,10.67,0,0,1,83.26,68.59Z" transform="translate(-9.58)"/><g class="cls-4"><g class="cls-5"><path class="cls-6" d="M30.1,15.44A22.3,22.3,0,0,0,27.34,17c-.3.35-2.7,5.38-2.7,5.38l5.1,1.85s3.88-1.31,4.51-1.65a9.71,9.71,0,0,0,2.11-2.23,10.23,10.23,0,0,0,0-2.08.78.78,0,0,0-.92-.71h0a.76.76,0,0,0-.64.69l-.15,1.46-1.09.44.63-.94-1.08-2L30.38,16Z" transform="translate(-9.58)"/><path class="cls-7" d="M29.2,20s-.42-2.21-1.84-3a24.52,24.52,0,0,1,2.74-1.52l.28.53,2.71,1.26,1.08,2-.63.94-1.12.43A8,8,0,0,0,29.2,20Z" transform="translate(-9.58)"/><path class="cls-6" d="M35.18,17.68l-.78,1.61a.7.7,0,0,1-.9.35h0a.7.7,0,0,1-.38-.94l.72-1.63a.71.71,0,0,1,.91-.37l0,0A.71.71,0,0,1,35.18,17.68Z" transform="translate(-9.58)"/><path class="cls-6" d="M33.9,17.06,33,19a.7.7,0,0,1-.9.36h0a.71.71,0,0,1-.39-.93l.85-1.95a.71.71,0,0,1,.9-.38l0,0A.72.72,0,0,1,33.9,17.06Z" transform="translate(-9.58)"/><path class="cls-6" d="M32.47,16.86l-.9,1.92a.7.7,0,0,1-.9.36h0a.71.71,0,0,1-.38-.93l.84-1.95a.71.71,0,0,1,.9-.38l0,0A.72.72,0,0,1,32.47,16.86Z" transform="translate(-9.58)"/><path class="cls-6" d="M31.2,16.32l-.59,1.27a.7.7,0,0,1-.9.36h0a.7.7,0,0,1-.39-.93l.54-1.29a.7.7,0,0,1,.9-.38l0,0A.7.7,0,0,1,31.2,16.32Z" transform="translate(-9.58)"/><path class="cls-8" d="M68.19,59.27a8.14,8.14,0,0,0,.12-6.49A9.05,9.05,0,0,0,63.42,48a8.46,8.46,0,0,0-5.26-10.78L45.1,34.56a8.45,8.45,0,0,0-9,7.91A9.09,9.09,0,0,0,29.71,45a8.16,8.16,0,0,0-2.4,6Z" transform="translate(-9.58)"/><path class="cls-8" d="M50.66,35.68,45.1,34.56a8.45,8.45,0,0,0-9,7.91A9.09,9.09,0,0,0,29.71,45a8.16,8.16,0,0,0-2.4,6L46.78,55Z" transform="translate(-9.58)"/><path class="cls-6" d="M59.07,36s1.51-1.77,2.91-.31-1.24,5.24-3,4.81c-.87-.21-.93-1.59-.93-1.59Z" transform="translate(-9.58)"/><path class="cls-7" d="M61.61,36.82A3.23,3.23,0,0,0,59,38.91a.92.92,0,0,0,0,.59.55.55,0,0,0,.46.34c.28,0,.48-.27.6-.53a3.24,3.24,0,0,0,.29-1.41A4.77,4.77,0,0,1,61.61,36.82Z" transform="translate(-9.58)"/><path class="cls-9" d="M59.07,36s1.51-1.77,2.91-.31a1.3,1.3,0,0,1,.33.61,2.86,2.86,0,0,0-1.05-.4A5.57,5.57,0,0,0,59,36Z" transform="translate(-9.58)"/><path class="cls-6" d="M44.76,33.08s-.72-2.21-2.57-1.41-.89,5.31.9,5.6c.88.14,1.47-1.11,1.47-1.11Z" transform="translate(-9.58)"/><path class="cls-7" d="M42.08,32.9a3.23,3.23,0,0,1,1.58,2.93.87.87,0,0,1-.22.54.52.52,0,0,1-.55.13c-.26-.1-.34-.43-.35-.71a3.12,3.12,0,0,1,.28-1.41A5,5,0,0,0,42.08,32.9Z" transform="translate(-9.58)"/><path class="cls-9" d="M44.76,33.08s-.72-2.21-2.57-1.41a1.47,1.47,0,0,0-.55.44,2.86,2.86,0,0,1,1.13,0,5.83,5.83,0,0,1,2,1Z" transform="translate(-9.58)"/><circle class="cls-8" cx="55.38" cy="17.19" r="7.55" transform="translate(-11.66 24.94) rotate(-24.93)"/><path class="cls-6" d="M45.57,40.75l0,6.5s6,3.68,10.79-.22l-.5-6.15Z" transform="translate(-9.58)"/><path class="cls-10" d="M56,40.91l-10.53-.19.11,6.42a13.09,13.09,0,0,0,10.5-3.66Z" transform="translate(-9.58)"/><path class="cls-6" d="M60.78,31.73c.32-2.85-1.1-6.8-6.73-7.93s-8.46,2-9.26,4.72A22.85,22.85,0,0,0,44.13,32c-.53,4.67-.19,11.83,5.65,13S58.71,39.74,60,35.23A22.77,22.77,0,0,0,60.78,31.73Z" transform="translate(-9.58)"/><path class="cls-8" d="M49.78,45.06a6.27,6.27,0,0,1-4.22-2.93v1.08a6.47,6.47,0,0,0,8.65,1.16A6.21,6.21,0,0,1,49.78,45.06Z" transform="translate(-9.58)"/><path class="cls-11" d="M54.37,22.54a9.62,9.62,0,0,0-4.34,0c0,.28-.16,1.11-.18,1.42a9.7,9.7,0,0,1,4.24,0,9.93,9.93,0,0,1,3.81,1.58c.1-.29.28-1,.36-1.31v0A9.91,9.91,0,0,0,54.37,22.54Z" transform="translate(-9.58)"/><path class="cls-6" d="M51.77,35.9c-.2-.59-1.79,1.57-1.79,1.57a2,2,0,0,0,1.23,1.07A2,2,0,0,0,52.78,38,5.21,5.21,0,0,1,51.77,35.9Z" transform="translate(-9.58)"/><path class="cls-7" d="M52.78,38a2.36,2.36,0,0,1-1.15.57h0a1.43,1.43,0,0,1-.41,0A2,2,0,0,1,50,37.47a3.68,3.68,0,0,0,2.49.56A2.48,2.48,0,0,0,52.78,38Z" transform="translate(-9.58)"/><path class="cls-12" d="M52.78,38a2.36,2.36,0,0,1-1.15.57,1.66,1.66,0,0,0,.84-.52,4.16,4.16,0,0,1-.66-2.76A5.8,5.8,0,0,0,52.78,38Z" transform="translate(-9.58)"/><path class="cls-12" d="M50.51,38a1.3,1.3,0,0,0-.26-.14,1.81,1.81,0,0,0,.49.46A.71.71,0,0,0,50.51,38Z" transform="translate(-9.58)"/><path class="cls-13" d="M53.55,33.24s-.86,2.07-1.08,2.92c0,0,3.41,2.08,5.17-.14.9-1.13.09-3.06.09-3.06S56.57,31.64,53.55,33.24Z" transform="translate(-9.58)"/><path class="cls-14" d="M57.56,35.6a2.35,2.35,0,0,0-2-1.58,3,3,0,0,0-2.65,1.46,3.23,3.23,0,0,1,2-.91A5.63,5.63,0,0,1,57.56,35.6Z" transform="translate(-9.58)"/><path class="cls-8" d="M53.17,33.34c-.12-.26.91-1.17,1-1.13s0,.28,0,.28a3,3,0,0,1,1.7-.45,3.33,3.33,0,0,1,2,.93c0,.1-1-.29-1-.29a1.08,1.08,0,0,1-.78.67c-.58.1-1.2-.19-1.51-.08S53.38,33.77,53.17,33.34Z" transform="translate(-9.58)"/><path class="cls-8" d="M57.7,35.69a3.73,3.73,0,0,0-2.58-1.27,3,3,0,0,0-2.25,1.06A3.3,3.3,0,0,1,55.15,35a3.61,3.61,0,0,1,2.06,1Z" transform="translate(-9.58)"/><path class="cls-13" d="M50.87,32.7s0,2.25-.13,3.11c0,0-4,.6-4.71-2.12-.39-1.39,1.09-2.86,1.09-2.86S48.7,30.06,50.87,32.7Z" transform="translate(-9.58)"/><path class="cls-8" d="M51.18,32.94c.22-.19-.38-1.43-.51-1.44s-.09.26-.09.26a3,3,0,0,0-1.39-1.07,3.4,3.4,0,0,0-2.24.08c0,.1,1,.1,1,.1a1.07,1.07,0,0,0,.45.92c.49.32,1.18.28,1.43.51S50.82,33.25,51.18,32.94Z" transform="translate(-9.58)"/><path class="cls-14" d="M46.26,33.33a2.34,2.34,0,0,1,2.49-.67A3,3,0,0,1,50.63,35a3.19,3.19,0,0,0-1.47-1.6A5.58,5.58,0,0,0,46.26,33.33Z" transform="translate(-9.58)"/><path class="cls-8" d="M46.1,33.35A3.71,3.71,0,0,1,49,33.19,3,3,0,0,1,50.63,35a3.28,3.28,0,0,0-1.9-1.35,3.7,3.7,0,0,0-2.31.16Z" transform="translate(-9.58)"/><path class="cls-15" d="M53.81,40.33a3,3,0,0,1-3.37,1.35,2.93,2.93,0,0,1-2.58-2.55Z" transform="translate(-9.58)"/><path class="cls-14" d="M53.85,40.11a1.16,1.16,0,0,0,.61.44.24.24,0,0,0,.17,0c.08-.07,0-.23-.08-.3a1.46,1.46,0,0,0-.35-.3c-.11-.08-.28-.16-.38-.09S53.79,40,53.85,40.11Z" transform="translate(-9.58)"/><path class="cls-14" d="M48.1,39a1.08,1.08,0,0,1-.73.17.24.24,0,0,1-.15-.08c0-.09.11-.2.19-.25a1.5,1.5,0,0,1,.44-.13c.13,0,.31,0,.38.06S48.19,38.89,48.1,39Z" transform="translate(-9.58)"/><path class="cls-16" d="M53.28,40.45a3.78,3.78,0,0,1-5-1Z" transform="translate(-9.58)"/><path class="cls-7" d="M53.25,40.18a2.43,2.43,0,0,0-2.39-.55,2.46,2.46,0,0,0-2.42-.42,1.55,1.55,0,0,1-.9-.37,5,5,0,0,0,3.12,1.75,5,5,0,0,0,3.56-.4A1.58,1.58,0,0,1,53.25,40.18Z" transform="translate(-9.58)"/><path class="cls-7" d="M53.81,40.33a3,3,0,0,1-3.37,1.35,2.93,2.93,0,0,1-2.58-2.55l-.32-.29S48,42,50.28,42.47s3.94-2.28,3.94-2.28Z" transform="translate(-9.58)"/><path class="cls-16" d="M50.52,41.3a3.46,3.46,0,0,1-2.47-1.43,3.45,3.45,0,0,0,5.29,1.07A3.5,3.5,0,0,1,50.52,41.3Z" transform="translate(-9.58)"/><path class="cls-8" d="M44.14,32.06c-.28,3,1.43-1.36,1.43-1.36C49,30,50.4,25.07,50.4,25.07a10.27,10.27,0,0,0,7.77,5s-.34,3,1,3.33c0,0-.12,4.73.8,1.81v0A30.72,30.72,0,0,0,61,31.61c.32-2.85-1.25-6.83-6.88-8s-8.58,1.78-9.38,4.53A33.75,33.75,0,0,0,44.13,32h0" transform="translate(-9.58)"/><path class="cls-9" d="M47.66,37.14c-.09.46-.69.72-1.34.59s-1.1-.61-1-1.06.69-.72,1.33-.59S47.75,36.69,47.66,37.14Z" transform="translate(-9.58)"/><path class="cls-9" d="M54.79,38.57c-.09.46.36.93,1,1.06s1.25-.13,1.34-.58-.36-.93-1-1.06S54.89,38.12,54.79,38.57Z" transform="translate(-9.58)"/><path class="cls-10" d="M58.17,30.11a10.27,10.27,0,0,1-7.77-5C50.43,25.71,53.2,30.82,58.17,30.11Z" transform="translate(-9.58)"/><path class="cls-6" d="M76.38,14.2a23,23,0,0,1,2.75,1.54c.3.35,2.71,5.38,2.71,5.38L76.74,23s-3.89-1.31-4.52-1.65a9.71,9.71,0,0,1-2.11-2.23,10.14,10.14,0,0,1,0-2.07.78.78,0,0,1,.92-.72h0a.76.76,0,0,1,.64.69l.15,1.47,1.09.43L72.3,18l1.09-2,2.7-1.26Z" transform="translate(-9.58)"/><path class="cls-7" d="M77.27,18.71s.42-2.21,1.84-3a24.45,24.45,0,0,0-2.73-1.52l-.29.53L73.39,16,72.3,18l.63.94,1.12.43A8,8,0,0,1,77.27,18.71Z" transform="translate(-9.58)"/><path class="cls-6" d="M71.3,16.45l.77,1.61a.71.71,0,0,0,.91.34h0a.7.7,0,0,0,.37-.93l-.72-1.64a.72.72,0,0,0-.91-.37l0,0A.71.71,0,0,0,71.3,16.45Z" transform="translate(-9.58)"/><path class="cls-6" d="M72.57,15.82l.9,1.92a.7.7,0,0,0,.9.36h0a.71.71,0,0,0,.39-.93l-.85-1.94a.71.71,0,0,0-.9-.39l-.05,0A.72.72,0,0,0,72.57,15.82Z" transform="translate(-9.58)"/><path class="cls-6" d="M74,15.62l.9,1.92a.7.7,0,0,0,.9.36h0a.71.71,0,0,0,.38-.93L75.34,15a.71.71,0,0,0-.9-.39l0,0A.72.72,0,0,0,74,15.62Z" transform="translate(-9.58)"/><path class="cls-6" d="M75.27,15.09l.59,1.27a.7.7,0,0,0,.9.35h0a.7.7,0,0,0,.39-.93l-.54-1.29a.71.71,0,0,0-.9-.38l0,0A.71.71,0,0,0,75.27,15.09Z" transform="translate(-9.58)"/><path class="cls-16" d="M22.07,25.06c.91-1.91,1.84-3.33,2.77-3.62C26,21.09,29.5,23,30.43,24.52c.7,1.16-2,4.52-2,4.52Z" transform="translate(-9.58)"/><path class="cls-16" d="M84.35,24.51c-.65-2-1.38-3.54-2.27-4-1.08-.49-4.82.89-6,2.32-.84,1.06,1.41,4.75,1.41,4.75Z" transform="translate(-9.58)"/><path class="cls-17" d="M51.7,49c11.63-.53,27.63-9.38,27.63-9.38s-5.78-10-4.22-13c1.36-2.66,8.62-4.83,11.39-3.69,5.55,2.27,9,17.33,5.41,23.34S73.76,59.34,73.76,59.34L85.27,79.51,45.81,91.67,34.49,65.39S10,56.93,9.61,47.79c-.53-11.6,5-23.15,11.16-24.07,2.94-.44,9.16,3.41,10.15,6.22,1.33,3.79-5.43,15.13-5.43,15.13S43.52,49.41,51.7,49Z" transform="translate(-9.58)"/><path class="cls-18" d="M34.31,64.52a.14.14,0,0,1-.11-.06,9.64,9.64,0,0,1-.56-.88c-.53-.91-1.13-1.94-2.15-2a.14.14,0,1,1,0-.27c1.16.11,1.8,1.2,2.36,2.17a8.07,8.07,0,0,0,.54.86.14.14,0,0,1,0,.19A.11.11,0,0,1,34.31,64.52Z" transform="translate(-9.58)"/><path class="cls-16" d="M51.63,48.75a80.88,80.88,0,0,1-16-1.54A72.52,72.52,0,0,0,55,61.41C70.82,69.49,79,68.58,79,68.58c-1.64-2.72-9.87-18.72-11.83-23.35A52.89,52.89,0,0,1,51.63,48.75Z" transform="translate(-9.58)"/><path class="cls-19" d="M85.93,52.08a35.11,35.11,0,0,0,3.41-2.79c-3.49-2.45-8.09-6.14-10-9.63l-.78.42A47.18,47.18,0,0,0,85.93,52.08Z" transform="translate(-9.58)"/><path class="cls-19" d="M18.83,58.1c2.75-3.69,6.62-9.32,7.45-12.84l-.79-.19C23,49.31,18,52.83,14.41,55A38.3,38.3,0,0,0,18.83,58.1Z" transform="translate(-9.58)"/><path class="cls-16" d="M44.11,48.76s.27-3.27,1.44-2.64a16.32,16.32,0,0,0,5.73,1.28,10.46,10.46,0,0,0,5-1.5c1-.67,1.39,2.38,1.39,2.38A9.17,9.17,0,0,1,51,50.76,11.77,11.77,0,0,1,44.11,48.76Z" transform="translate(-9.58)"/><path class="cls-20" d="M50.73,51.15a12.49,12.49,0,0,1-6.32-1.68.14.14,0,0,1,0-.19.16.16,0,0,1,.19-.05A12.27,12.27,0,0,0,51,50.88,11.91,11.91,0,0,0,57.31,49a.14.14,0,0,1,.19,0,.13.13,0,0,1,0,.19,12,12,0,0,1-6.44,2Z" transform="translate(-9.58)"/><path class="cls-20" d="M45.83,49.22h0a.13.13,0,0,1-.12-.15L46,46.88a.14.14,0,0,1,.16-.11.13.13,0,0,1,.11.15L46,49.1A.13.13,0,0,1,45.83,49.22Z" transform="translate(-9.58)"/><path class="cls-20" d="M47.59,49.86h0a.13.13,0,0,1-.12-.15l.11-1.09a.13.13,0,0,1,.15-.12.14.14,0,0,1,.13.15l-.12,1.09A.14.14,0,0,1,47.59,49.86Z" transform="translate(-9.58)"/><path class="cls-20" d="M50.42,50.32h0a.14.14,0,0,1-.13-.14v-2a.14.14,0,0,1,.14-.14h0a.14.14,0,0,1,.14.14l0,2A.13.13,0,0,1,50.42,50.32Z" transform="translate(-9.58)"/><path class="cls-20" d="M52.76,50.06a.13.13,0,0,1-.13-.13l0-.85a.14.14,0,0,1,.14-.14.13.13,0,0,1,.14.13l0,.85a.13.13,0,0,1-.13.14Z" transform="translate(-9.58)"/><path class="cls-20" d="M54.67,49.64a.14.14,0,0,1-.13-.11l-.41-1.73a.15.15,0,0,1,.11-.17.14.14,0,0,1,.16.11l.4,1.73a.13.13,0,0,1-.1.16Z" transform="translate(-9.58)"/><path class="cls-20" d="M56.28,48.58a.13.13,0,0,1-.13-.11L56,47.55a.13.13,0,0,1,.11-.15.14.14,0,0,1,.16.12l.12.91a.13.13,0,0,1-.12.15Z" transform="translate(-9.58)"/><path class="cls-18" d="M12.31,44.88a.15.15,0,0,1-.12-.07.13.13,0,0,1,.05-.19c4.12-2.42,11.14-6.92,12.47-8.68.1-.13.2-.31.14-.42-.24-.42-2.29-.2-3.65-.05s-2.31.24-2.55,0a.26.26,0,0,1-.07-.19c0-.32.82-.77,2.87-1.87s5-2.73,5.31-3.68a.14.14,0,0,1,.17-.09.15.15,0,0,1,.1.17c-.31,1.06-3,2.54-5.45,3.84a15.63,15.63,0,0,0-2.71,1.63,10,10,0,0,0,2.3-.11c2.17-.24,3.61-.36,3.92.18.11.19.05.44-.16.72-1.52,2-9.78,7.13-12.55,8.76Z" transform="translate(-9.58)"/><path class="cls-18" d="M75,57.07a.13.13,0,0,1-.12-.07c-.44-.83,1.48-4.33,2.13-4.92,0,0,.18-.17.32-.09s.14.44,0,1.18a5,5,0,0,0-.12,1l0,0,3.76-3,.17.21-3.76,3c-.14.11-.26.13-.36.07s-.14-.57,0-1.34a5.92,5.92,0,0,0,.12-.83c-.72.68-2.38,4-2.06,4.58a.14.14,0,0,1,0,.19Z" transform="translate(-9.58)"/><path class="cls-18" d="M72.63,71.55h0c-1.85-.16-4.55-1.39-7.15-2.58a33.64,33.64,0,0,0-5.57-2.2c-.49-.12-.82-.1-.94,0s.1.93.37,1.53c.33.77.64,1.49.32,1.88s-.62.29-1.31.14C55,69.6,50.52,67,39.12,59.05a.13.13,0,0,1,0-.19.14.14,0,0,1,.19,0c12.61,8.76,16.21,10.61,19.11,11.27.55.13.91.11,1,0s-.09-1-.36-1.59-.63-1.44-.33-1.81.58-.28,1.21-.14a34.82,34.82,0,0,1,5.62,2.22c2.59,1.18,5.26,2.4,7.07,2.56a.14.14,0,0,1,.12.15A.12.12,0,0,1,72.63,71.55Z" transform="translate(-9.58)"/><path class="cls-18" d="M34.31,64.52h0a.14.14,0,0,1-.13-.14s.2-4.16.17-8.25c-.05-7.37-.76-8.27-1.07-8.31a.14.14,0,0,1-.11-.16.13.13,0,0,1,.15-.11c.54.08,1.25,1.05,1.3,8.58,0,4.1-.16,8.22-.16,8.26A.15.15,0,0,1,34.31,64.52Z" transform="translate(-9.58)"/><path class="cls-18" d="M85.63,37.61a.11.11,0,0,1-.08,0c-.78-.64-4.62-3.85-4.62-4.6a.25.25,0,0,1,.09-.2c.29-.24,1.3-.05,2.93.27,1,.21,2.68.54,2.84.34h0s0-.14-.52-.58c-1.73-1.55-6.27-4.21-7.22-4.1a.14.14,0,0,1,0-.27c1.21-.15,6.59,3.2,7.77,4.48.21.23.29.39.26.53-.09.44-1,.3-3.16-.13A8.61,8.61,0,0,0,81.2,33c0,.47,2.65,2.84,4.52,4.38a.13.13,0,0,1,0,.19A.16.16,0,0,1,85.63,37.61Z" transform="translate(-9.58)"/><path class="cls-21" d="M49.58,25.28a11.25,11.25,0,0,1-5,3.2c-.08.38-.16.91-.24,1.52A11.94,11.94,0,0,0,49.58,25.28Z" transform="translate(-9.58)"/></g></g><circle class="cls-22" cx="64.54" cy="65.3" r="10.98"/><circle class="cls-22" cx="8.61" cy="7.11" r="4.67"/><circle class="cls-23" cx="13.42" cy="4.67" r="4.67"/></g></g></g></svg>